HIERARCHY
ROOT Hips
{
	OFFSET 51.962399 -42.087715 101.174995
	CHANNELS 6 Xposition Yposition Zposition Xrotation Yrotation Zrotation
	JOINT spine
	{
		OFFSET 0.000000 -0.507027 8.817047
		CHANNELS 3 Xrotation Yrotation Zrotation
		JOINT spine1
		{
			OFFSET 0.000000 0.000000 10.776596
			CHANNELS 3 Xrotation Yrotation Zrotation
			JOINT spine2
			{
				OFFSET 0.000000 -0.000004 10.325905
				CHANNELS 3 Xrotation Yrotation Zrotation
				JOINT Neck
				{
					OFFSET 0.000000 -1.263954 26.511002
					CHANNELS 3 Xrotation Yrotation Zrotation
					JOINT Head
					{
						OFFSET 0.000000 0.000000 8.009659
						CHANNELS 3 Xrotation Yrotation Zrotation
						End Site
						{
							OFFSET 0.000000 6.393856 19.387894
						}
					}
				}
				JOINT RightShoulder
				{
					OFFSET -4.347950 0.605423 11.151199
					CHANNELS 3 Xrotation Yrotation Zrotation
					JOINT RightArm
					{
						OFFSET 0.000000 -0.000004 14.625793
						CHANNELS 3 Xrotation Yrotation Zrotation
						JOINT RightArmRoll
						{
							OFFSET 0.000000 0.000000 7.383408
							CHANNELS 3 Xrotation Yrotation Zrotation
							JOINT RightForeArm
							{
								OFFSET 0.000000 -0.000004 21.505203
								CHANNELS 3 Xrotation Yrotation Zrotation
								JOINT RightForeArmRoll
								{
									OFFSET 0.000000 0.000000 8.285324
									CHANNELS 3 Xrotation Yrotation Zrotation
									JOINT RightHand
									{
										OFFSET 0.000000 -0.000004 16.626801
										CHANNELS 3 Xrotation Yrotation Zrotation
										End Site
										{
											OFFSET 0.000000 0.000000 0.100006
										}
									}
								}
							}
						}
					}
				}
				JOINT LeftShoulder
				{
					OFFSET 4.347950 0.605423 11.151199
					CHANNELS 3 Xrotation Yrotation Zrotation
					JOINT LeftArm
					{
						OFFSET 0.000000 -0.000004 14.625793
						CHANNELS 3 Xrotation Yrotation Zrotation
						JOINT LeftArmRoll
						{
							OFFSET 0.000000 0.000000 7.383408
							CHANNELS 3 Xrotation Yrotation Zrotation
							JOINT LeftForeArm
							{
								OFFSET 0.000000 -0.000004 21.505203
								CHANNELS 3 Xrotation Yrotation Zrotation
								JOINT LeftForeArmRoll
								{
									OFFSET 0.000000 0.000000 8.285324
									CHANNELS 3 Xrotation Yrotation Zrotation
									JOINT LeftHand
									{
										OFFSET 0.000000 -0.000004 16.626801
										CHANNELS 3 Xrotation Yrotation Zrotation
										End Site
										{
											OFFSET 0.000000 0.000000 0.100006
										}
									}
								}
							}
						}
					}
				}
			}
		}
	}
	JOINT RightUpLeg
	{
		OFFSET -7.815102 1.202171 -1.433090
		CHANNELS 3 Xrotation Yrotation Zrotation
		JOINT RightUpLegRoll
		{
			OFFSET 0.000000 -0.000004 19.495895
			CHANNELS 3 Xrotation Yrotation Zrotation
			JOINT RightLeg
			{
				OFFSET 0.000000 0.000004 -24.142700
				CHANNELS 3 Xrotation Yrotation Zrotation
				JOINT RightLegRoll
				{
					OFFSET 0.000000 -0.000004 24.221703
					CHANNELS 3 Xrotation Yrotation Zrotation
					JOINT RightFoot
					{
						OFFSET 0.000000 -0.000004 20.160507
						CHANNELS 3 Xrotation Yrotation Zrotation
						JOINT RightToeBase
						{
							OFFSET 0.000000 -0.000004 16.853195
							CHANNELS 3 Xrotation Yrotation Zrotation
							End Site
							{
								OFFSET 0.007145 0.940781 8.161865
							}
						}
					}
				}
			}
		}
	}
	JOINT LeftUpLeg
	{
		OFFSET 7.815102 1.202171 -1.433090
		CHANNELS 3 Xrotation Yrotation Zrotation
		JOINT LeftUpLegRoll
		{
			OFFSET 0.000000 -0.000004 19.496002
			CHANNELS 3 Xrotation Yrotation Zrotation
			JOINT LeftLeg
			{
				OFFSET 0.000000 -0.000004 24.142601
				CHANNELS 3 Xrotation Yrotation Zrotation
				JOINT LeftLegRoll
				{
					OFFSET 0.000000 -0.000004 24.445602
					CHANNELS 3 Xrotation Yrotation Zrotation
					JOINT LeftFoot
					{
						OFFSET 0.000000 -0.000004 19.936600
						CHANNELS 3 Xrotation Yrotation Zrotation
						JOINT LeftToeBase
						{
							OFFSET 0.000000 -0.000004 16.853195
							CHANNELS 3 Xrotation Yrotation Zrotation
							End Site
							{
								OFFSET -0.032013 0.940781 8.161865
							}
						}
					}
				}
			}
		}
	}
}
MOTION
Frames: 6
Frame Time: 0.041667
53.093002 -9.916512 51.267204 -5.208514 1.815458 0.019887 1.340992 -0.639224 0.131672 6.677318 -1.262391 0.268559 8.322562 -1.258975 0.283787 10.361428 1.128055 2.420773 -12.461179 3.621294 2.355734 -1.555526 -64.042791 -2.463168 -66.115316 -131.672086 -66.005172 -0.000003 -0.000021 0.000001 42.000312 -11.635985 3.045994 0.000001 0.000013 -3.004199 -4.999621 -7.998728 0.000023 -7.097830 61.243485 8.586163 -60.103766 134.553224 70.144069 -0.000000 0.000001 0.000001 41.302174 11.446286 -3.004057 0.000011 -0.000008 3.003778 -4.999613 7.998708 -0.000001 -91.141962 -169.119145 4.761838 -179.999991 0.000006 -1.510997 76.493925 2.617217 1.207358 -0.000002 -0.000004 2.047268 71.708121 7.384963 0.559357 25.456866 -7.347453 -0.000014 -92.391279 172.195981 1.993129 -0.000019 -0.000004 -1.294270 -105.906844 -5.715441 -4.739175 -0.000005 0.000004 -1.826062 72.277082 -5.601737 -5.532329 25.456914 7.348366 0.000005 
53.088604 -9.903469 51.268494 -5.204848 1.815548 0.019880 1.340992 -0.639496 0.131673 6.677392 -1.263811 0.268522 8.322638 -1.260390 0.283748 10.311070 1.141970 2.418916 -12.390428 3.606343 2.351501 -1.552906 -64.035114 -2.459349 -66.109483 -131.673357 -66.003513 -0.000003 -0.000020 0.000001 42.009014 -11.635895 3.046466 0.000003 0.000013 -3.004200 -4.999622 -7.998733 0.000022 -7.113384 61.243472 8.604257 -60.101334 134.557431 70.140592 -0.000002 0.000001 -0.000001 41.309039 11.444109 -3.003088 0.000012 -0.000007 3.003779 -4.999612 7.998711 -0.000003 -91.146484 -169.121016 4.763122 -179.999991 0.000006 -1.510996 76.493153 2.616928 1.207142 -0.000002 -0.000004 2.047318 71.707567 7.385214 0.558735 25.456866 -7.347453 -0.000014 -92.395582 172.196446 1.997116 -0.000020 -0.000003 -1.294250 -105.903435 -5.714561 -4.738877 -0.000004 0.000004 -1.825201 72.272178 -5.599466 -5.539819 25.456912 7.348362 0.000005 
53.090805 -9.908169 51.264496 -5.201338 1.815707 0.019788 1.340992 -0.639759 0.131672 6.677457 -1.265242 0.268467 8.322702 -1.261834 0.283692 10.260810 1.156469 2.417196 -12.319664 3.590754 2.347400 -1.549791 -64.026951 -2.454922 -66.102701 -131.675092 -66.000548 -0.000004 -0.000021 -0.000000 42.017630 -11.635898 3.046954 0.000002 0.000013 -3.004199 -4.999622 -7.998730 0.000023 -7.129439 61.243629 8.622942 -60.098104 134.562213 70.135435 -0.000002 -0.000000 0.000000 41.315848 11.441631 -3.001910 0.000012 -0.000006 3.003779 -4.999612 7.998711 -0.000001 -91.150855 -169.122983 4.764130 -179.999991 0.000006 -1.510996 76.492279 2.616610 1.206925 -0.000003 -0.000005 2.047412 71.707246 7.385481 0.558000 25.456861 -7.347455 -0.000014 -92.399714 172.196569 2.000188 -0.000020 -0.000003 -1.294210 -105.900389 -5.714122 -4.737649 -0.000005 0.000005 -1.824290 72.267554 -5.597044 -5.547972 25.456906 7.348367 0.000004 
53.088505 -9.903950 51.262390 -5.197920 1.815916 0.019639 1.340992 -0.640015 0.131672 6.677499 -1.266692 0.268400 8.322745 -1.263278 0.283621 10.210556 1.171395 2.415566 -12.249001 3.574709 2.343430 -1.546335 -64.018591 -2.450067 -66.096007 -131.676922 -65.997659 -0.000004 -0.000020 0.000001 42.026038 -11.635936 3.047382 0.000003 0.000012 -3.004200 -4.999626 -7.998731 0.000021 -7.145826 61.243875 8.642022 -60.095932 134.566638 70.131337 -0.000000 -0.000000 0.000003 41.322627 11.439002 -3.000655 0.000012 -0.000007 3.003780 -4.999613 7.998708 -0.000003 -91.155158 -169.125046 4.765440 -179.999991 0.000006 -1.510996 76.491295 2.616263 1.206606 -0.000002 -0.000004 2.047520 71.706939 7.385818 0.557073 25.456863 -7.347453 -0.000013 -92.403696 172.196528 2.003965 -0.000019 -0.000005 -1.294170 -105.897732 -5.713503 -4.736432 -0.000004 0.000005 -1.823359 72.263285 -5.594440 -5.556579 25.456907 7.348364 0.000003 
53.086105 -9.926243 51.259087 -5.194555 1.816145 0.019455 1.340992 -0.640267 0.131673 6.677543 -1.268141 0.268325 8.322781 -1.264743 0.283545 10.160400 1.186551 2.413999 -12.178238 3.558406 2.339521 -1.542679 -64.009924 -2.444967 -66.090413 -131.678425 -65.996218 -0.000002 -0.000021 0.000000 42.034364 -11.636061 3.047848 -0.000001 0.000012 -3.004200 -4.999622 -7.998728 0.000023 -7.162379 61.244100 8.661299 -60.093767 134.571078 70.126959 0.000000 -0.000001 -0.000000 41.329297 11.436316 -2.999342 0.000012 -0.000007 3.003779 -4.999615 7.998711 -0.000003 -91.159400 -169.127095 4.766054 -179.999991 0.000006 -1.510997 76.490209 2.615913 1.206290 -0.000002 -0.000004 2.047639 71.706755 7.386177 0.556146 25.456865 -7.347454 -0.000012 -92.407610 172.196364 2.007938 -0.000019 -0.000004 -1.294130 -105.895171 -5.712919 -4.735223 -0.000004 0.000005 -1.822410 72.259112 -5.591777 -5.565472 25.456912 7.348367 0.000005 
53.085304 -9.924725 51.252300 -5.191197 1.816384 0.019263 1.340995 -0.640517 0.131673 6.677577 -1.269592 0.268247 8.322825 -1.266207 0.283467 10.110248 1.201770 2.412477 -12.107476 3.542040 2.335683 -1.538977 -64.001256 -2.439806 -66.083706 -131.680255 -65.993322 -0.000003 -0.000021 0.000000 42.042683 -11.636194 3.048303 0.000002 0.000013 -3.004199 -4.999623 -7.998731 0.000022 -7.179014 61.244421 8.680666 -60.090823 134.576091 70.121324 0.000001 0.000001 0.000001 41.336052 11.433533 -2.997992 0.000011 -0.000010 3.003778 -4.999610 7.998706 -0.000003 -91.163641 -169.129158 4.767671 -179.999991 0.000006 -1.510997 76.489123 2.615539 1.205969 -0.000002 -0.000004 2.047759 71.706563 7.386505 0.555210 25.456866 -7.347451 -0.000013 -92.411517 172.196104 2.011707 -0.000020 -0.000004 -1.294080 -105.892705 -5.712369 -4.735020 -0.000004 0.000005 -1.821450 72.255137 -5.589057 -5.574445 25.456907 7.348364 0.000005 
